<svg id="visual" viewBox="0 0 960 540" width="960" height="540" xmlns="http://www.w3.org/2000/svg" xmlns:xlink="http://www.w3.org/1999/xlink" version="1.1"><rect x="0" y="0" width="960" height="540" fill="#141414"></rect><path d="M0 177L137 162L274 147L411 164L549 193L686 203L823 183L960 144L960 541L823 541L686 541L549 541L411 541L274 541L137 541L0 541Z" fill="#4e9d40"></path><path d="M0 208L137 207L274 204L411 201L549 202L686 232L823 212L960 198L960 541L823 541L686 541L549 541L411 541L274 541L137 541L0 541Z" fill="#389148"></path><path d="M0 263L137 255L274 255L411 259L549 260L686 281L823 282L960 263L960 541L823 541L686 541L549 541L411 541L274 541L137 541L0 541Z" fill="#25844d"></path><path d="M0 297L137 288L274 327L411 317L549 322L686 286L823 326L960 303L960 541L823 541L686 541L549 541L411 541L274 541L137 541L0 541Z" fill="#147750"></path><path d="M0 352L137 373L274 352L411 345L549 380L686 357L823 340L960 340L960 541L823 541L686 541L549 541L411 541L274 541L137 541L0 541Z" fill="#096b50"></path><path d="M0 419L137 411L274 378L411 391L549 383L686 406L823 388L960 379L960 541L823 541L686 541L549 541L411 541L274 541L137 541L0 541Z" fill="#0c5e4e"></path><path d="M0 421L137 425L274 428L411 430L549 441L686 452L823 439L960 461L960 541L823 541L686 541L549 541L411 541L274 541L137 541L0 541Z" fill="#155149"></path><path d="M0 493L137 482L274 509L411 468L549 507L686 480L823 494L960 474L960 541L823 541L686 541L549 541L411 541L274 541L137 541L0 541Z" fill="#1d4441"></path></svg>